<?xml version="1.0" encoding="utf-8"?>
<!-- Generator: Adobe Illustrator 21.0.0, SVG Export Plug-In . SVG Version: 6.00 Build 0)  -->
<svg version="1.1" id="Layer_1" xmlns="http://www.w3.org/2000/svg" xmlns:xlink="http://www.w3.org/1999/xlink" x="0px" y="0px"
	 viewBox="0 0 121.1 20.3" style="enable-background:new 0 0 121.1 20.3;" xml:space="preserve">
<style type="text/css">
	.st0{fill:#0060A9;}
	.st1{fill:#66B015;}
</style>
<title>Asset 2</title>
<g id="Layer_1-2">
	<path class="st0" d="M121.1,20.3h-5.6v-8.5h-1.8v8.5h-5.6v-10h9.5c0.9,0,1.8,0.2,2.5,0.7c0.6,0.3,1,1,1,1.7V20.3z"/>
	<path class="st0" d="M106,11c-0.8-0.5-1.7-0.8-2.7-0.7h-5.5c-0.9,0-1.9,0.2-2.7,0.7c-0.7,0.4-1.1,1-1.1,1.8v4.9
		c0,0.7,0.4,1.4,1.1,1.8c0.8,0.5,1.7,0.8,2.7,0.7h5.5c0.9,0,1.9-0.2,2.7-0.7c0.7-0.4,1.1-1,1.1-1.8v-4.9C107,12.1,106.6,11.4,106,11
		z M101.4,18.9h-1.7v-7.1h1.7V18.9z"/>
	<path class="st0" d="M78.3,20.3h-9.5c-0.9,0-1.8-0.2-2.5-0.7c-0.6-0.3-1-1-1-1.7v-7.6h5.6v8.5h1.8v-8.5h5.6V20.3z"/>
	<path class="st0" d="M56.6,11c-0.8-0.5-1.7-0.8-2.7-0.7h-5.5c-0.9,0-1.9,0.2-2.7,0.7c-0.7,0.4-1.1,1-1.1,1.8v4.9
		c0,0.7,0.4,1.4,1.1,1.8c0.8,0.5,1.7,0.8,2.7,0.7H54c0.9,0,1.9-0.2,2.7-0.7c0.7-0.4,1.1-1,1.1-1.8v-4.9C57.7,12.1,57.3,11.4,56.6,11
		z M52.1,18.9h-1.7v-7.1h1.7V18.9z"/>
	<path class="st0" d="M43.8,11.8h-1.5v6c0,0.7-0.4,1.4-1.1,1.8c-0.8,0.5-1.7,0.7-2.7,0.7H35v-1.4h1.6v-6c0-0.7,0.4-1.4,1.1-1.8
		c0.8-0.5,1.7-0.8,2.6-0.7h3.4L43.8,11.8z"/>
	<polygon class="st0" points="31.7,12.8 26.3,18.8 30.8,18.8 30.8,20.3 24.5,20.3 20.7,17.8 26.1,11.8 21.6,11.8 21.6,10.3 
		27.9,10.3 	"/>
	<path class="st1" d="M16.8,0c-2.4,0-4.4,1.9-4.4,4.3v0.1c0,2.4,2,4.4,4.4,4.4s4.4-2,4.4-4.4l0,0C21.3,2,19.4,0,17,0
		C17,0,16.9,0,16.8,0z M16.8,7.7c-1.9,0-3.1-1.4-3.1-3.3s1.2-3.3,3.1-3.3s3.1,1.3,3.1,3.3S18.7,7.7,16.8,7.7z"/>
	<path class="st0" d="M16.8,10.3c-1,0-2-0.3-2.7-0.9v10.9h5.5V9.4C18.8,10,17.8,10.3,16.8,10.3z"/>
	<path class="st1" d="M90.4,0C88,0,86,1.9,86,4.3v0.1c-0.1,2.4,1.8,4.5,4.3,4.6s4.5-1.8,4.6-4.3c0-0.1,0-0.2,0-0.3
		C94.9,2,92.9,0,90.4,0L90.4,0z M90.4,7.7c-1.9,0-3.1-1.4-3.1-3.3s1.3-3.3,3.1-3.3s3.1,1.3,3.1,3.3S92.3,7.7,90.4,7.7z"/>
	<path class="st0" d="M90.4,10.3c-1,0-2-0.3-2.7-0.9v10.9h5.5V9.4C92.3,10,91.4,10.3,90.4,10.3z"/>
	<path class="st0" d="M9.5,20.3c0.9,0,1.8-0.2,2.5-0.7c0.6-0.3,1-1,1-1.7v-5.2c0-0.7-0.4-1.4-1-1.7c-0.7-0.5-1.6-0.7-2.5-0.7H5.6v-2
		l0,0v0c0-0.7-0.4-1.4-1.1-1.8C3.7,6,2.8,5.8,1.9,5.8H0v14.5H9.5z M5.6,11.8h1.8v7.1H5.6V11.8z"/>
	<path class="st0" d="M80.3,19.6c0.7,0.5,1.6,0.7,2.5,0.7h3.8v-1.4h-1.8v-7.1h1.8v-1.4h-1.8V8.2l0,0c-0.1-0.7-0.5-1.3-1.1-1.7
		C83,6,82.1,5.8,81.1,5.8h-1.9v12.1C79.3,18.6,79.7,19.2,80.3,19.6z"/>
	<path class="st0" d="M64.3,18.9L64.3,18.9v-7.1l0,0v-1.4l0,0v-2l0,0V8.3c0-0.7-0.4-1.4-1.1-1.8c-0.8-0.5-1.7-0.8-2.6-0.7h-1.9v14.5
		h5.6V18.9z"/>
</g>
</svg>
